<svg width="140" height="60" viewBox="0 0 140 60" fill="none" xmlns="http://www.w3.org/2000/svg">
<path d="M29.7523 37.2H28.2163L25.7843 44.16C25.5123 44.944 25.2403 45.84 25.0323 46.576H25.0163C24.8083 45.808 24.5363 44.896 24.2963 44.224L21.8803 37.2H20.2323L24.0883 48H25.8803L29.7523 37.2ZM37.8029 48V46.768H33.0989V43.024H37.3549V41.84H33.0989V38.416H37.7389V37.2H31.6269V48H37.8029ZM47.869 48L45.181 44.288C44.765 43.696 44.301 43.136 44.301 43.136C45.837 42.912 47.133 41.952 47.133 40.08C47.133 38.016 45.597 37.136 43.341 37.136C41.949 37.136 40.525 37.216 40.525 37.216V48H41.997V43.328H42.781L46.045 48H47.869ZM41.997 38.368C41.997 38.368 42.621 38.336 43.213 38.336C44.765 38.336 45.597 39.024 45.597 40.256C45.597 41.488 44.717 42.224 43.149 42.224C42.605 42.224 41.997 42.208 41.997 42.208V38.368ZM56.0628 38.432V37.2H48.3668V38.432H51.4708V48H52.9428V38.432H56.0628ZM65.3528 48L62.6648 44.288C62.2488 43.696 61.7848 43.136 61.7848 43.136C63.3208 42.912 64.6168 41.952 64.6168 40.08C64.6168 38.016 63.0808 37.136 60.8248 37.136C59.4328 37.136 58.0088 37.216 58.0088 37.216V48H59.4808V43.328H60.2648L63.5288 48H65.3528ZM59.4808 38.368C59.4808 38.368 60.1048 38.336 60.6968 38.336C62.2488 38.336 63.0808 39.024 63.0808 40.256C63.0808 41.488 62.2008 42.224 60.6328 42.224C60.0888 42.224 59.4808 42.208 59.4808 42.208V38.368ZM75.3831 48L71.5271 37.2H69.7351L65.8631 48H67.3671L68.2631 45.424H72.8551L73.7351 48H75.3831ZM72.5031 44.256H68.6311L70.1031 40.096C70.2631 39.584 70.4231 39.072 70.5511 38.592H70.5671C70.7111 39.072 70.8551 39.584 71.0311 40.112L72.5031 44.256ZM85.0789 37.2H83.6389V43.984C83.6389 46.16 82.7589 46.944 80.8709 46.944C78.6949 46.944 78.1989 45.744 78.1989 44.256V37.2H76.7269V44.368C76.7269 46.288 77.3989 48.16 80.7749 48.16C83.5909 48.16 85.0789 46.704 85.0789 43.872V37.2ZM94.1826 48V46.752H89.8626V37.2H88.3906V48H94.1826ZM97.4482 48V37.2H95.9762V48H97.4482ZM107.62 46.384C106.788 46.64 105.764 46.816 104.964 46.816C102.612 46.816 101.444 45.312 101.444 42.688C101.444 40.288 102.468 38.368 104.868 38.368C105.732 38.368 106.628 38.56 107.492 38.928V37.472C106.756 37.232 105.892 37.104 105.06 37.104C101.508 37.104 99.8597 39.568 99.8597 42.848C99.8597 45.952 101.316 48.128 104.692 48.128C105.748 48.128 106.74 47.952 107.62 47.696V46.384ZM118.58 48V37.2H117.108V41.776H111.604V37.2H110.132V48H111.604V43.024H117.108V48H118.58Z" fill="white"/>
<path d="M24.5741 19.872C23.8701 20.096 22.9901 20.256 22.2381 20.256C20.1901 20.256 19.2141 18.976 19.2141 16.704C19.2141 14.544 20.0781 12.96 22.1421 12.96C22.9261 12.96 23.7261 13.152 24.4941 13.472V11.392C23.8061 11.216 23.0541 11.104 22.2701 11.104C18.7341 11.104 16.9261 13.52 16.9261 16.896C16.9261 19.728 18.1581 22.128 21.8541 22.128C22.8621 22.128 23.7421 21.984 24.5741 21.76V19.872ZM36.0639 16.4C36.0639 13.008 34.3519 11.024 31.1039 11.024C28.2399 11.024 25.8079 13.056 25.8079 16.8C25.8079 20.192 27.5199 22.176 30.7679 22.176C33.6319 22.176 36.0639 20.144 36.0639 16.4ZM33.8399 16.64C33.8399 19.024 32.6239 20.304 30.9279 20.304C28.9919 20.304 28.0319 18.864 28.0319 16.544C28.0319 14.176 29.2319 12.896 30.9279 12.896C32.8799 12.896 33.8399 14.336 33.8399 16.64ZM46.8141 22V11.2H44.7981V13.824C44.7981 15.6 44.8781 17.504 44.9581 18.688H44.9261C44.6221 18.016 44.1901 17.2 43.6301 16.32L40.4461 11.2H38.0781V22H40.0941V19.056C40.0941 17.312 40.0141 15.28 39.9341 14.192H39.9661C40.2861 14.912 40.6221 15.552 41.2301 16.528L44.6221 22H46.8141ZM56.0478 12.976V11.2H49.6638V22H51.7438V17.488H55.7918V15.792H51.7438V12.976H56.0478ZM60.0638 22V11.2H57.9838V22H60.0638ZM62.9131 21.984C63.8251 22.016 64.8011 22.064 65.9211 22.064C69.4411 22.064 71.8731 20.112 71.8731 16.416C71.8731 12.624 69.7451 11.136 66.4011 11.136C65.0731 11.136 63.7611 11.184 62.9131 11.216V21.984ZM64.9931 12.928C65.3291 12.896 65.7771 12.88 66.2571 12.88C68.7211 12.88 69.6331 14.256 69.6331 16.576C69.6331 19.136 68.1611 20.288 66.1291 20.288C65.7131 20.288 65.2811 20.256 64.9931 20.208V12.928ZM80.465 22V20.208H75.985V17.28H80.065V15.616H75.985V12.944H80.417V11.2H73.905V22H80.465ZM91.5391 22V11.2H89.5231V13.824C89.5231 15.6 89.6031 17.504 89.6831 18.688H89.6511C89.3471 18.016 88.9151 17.2 88.3551 16.32L85.1711 11.2H82.8031V22H84.8191V19.056C84.8191 17.312 84.7391 15.28 84.6591 14.192H84.6911C85.0111 14.912 85.3471 15.552 85.9551 16.528L89.3471 22H91.5391ZM100.892 12.976V11.2H93.2119V12.976H96.0119V22H98.0919V12.976H100.892ZM104.648 22V11.2H102.568V22H104.648ZM116.065 22L112.433 11.2H109.729L106.113 22H108.209L108.961 19.696H113.025L113.761 22H116.065ZM112.561 18.048H109.441L110.561 14.656C110.721 14.128 110.865 13.568 110.977 13.056H111.009C111.121 13.568 111.265 14.112 111.441 14.672L112.561 18.048ZM123.552 22V20.192H119.616V11.2H117.536V22H123.552Z" fill="white"/>
<rect x="58" y="29" width="24" height="1" fill="white"/>
<rect x="0.5" y="0.5" width="139" height="59" rx="1.5" stroke="white"/>
</svg>
